<?xml version="1.0" encoding="utf-8"?>
<!-- Generated by IcoMoon.io -->
<!DOCTYPE svg PUBLIC "-//W3C//DTD SVG 1.1//EN" "http://www.w3.org/Graphics/SVG/1.1/DTD/svg11.dtd">
<svg version="1.1" xmlns="http://www.w3.org/2000/svg" xmlns:xlink="http://www.w3.org/1999/xlink" width="1635" height="1024" viewBox="0 0 1635 1024">
<g>
</g>
	<path d="M1406.511 395.313l147.184-253.959-2.384-1.378c6.005-10.587 9.704-22.674 9.704-35.721 0-40.162-32.454-72.725-72.494-72.725-1.269 0-2.461 0.31-3.714 0.372h-439.541c-1.254-0.062-2.446-0.372-3.714-0.372-26.419 0-49.325 14.332-61.985 35.519l-0.248-0.139-322.706 559.377v-523.998h-0.883c-1.052-39.249-32.919-70.791-72.308-70.791-25.908 0-48.473 13.743-61.303 34.25l-0.279-0.155-326.808 566.342v-526.907h-0.635c0-0.17 0.046-0.31 0.046-0.48 0-40.162-31.232-72.725-71.271-72.725s-72.493 32.564-72.493 72.725c0 0.17 0.046 0.31 0.046 0.48h-0.434v806.279h0.976c3.962 36.416 34.359 64.863 71.704 64.863 24.67 0 46.399-12.413 59.493-31.309l0.495 0.294 328.293-570.165v525.266c-0.046 1.114-0.325 2.167-0.325 3.297s0.279 2.182 0.325 3.297v1.362h0.139c2.43 37.825 33.461 67.835 71.781 67.835 30.041 0 55.779-18.418 66.674-44.589l421.634-733.893 0.31 0.557c11.778-22.024 32.919-20.94 32.919-20.94l0.526-0.542h258.927l-132.357 227.587 0.217 0.124c-5.309 10.106-8.604 21.451-8.604 33.678 0 36.278 26.543 66.085 61.164 71.58l0.108 0.542c86.144 7.444 154.706 79.737 154.706 167.985 0 93.186-76.44 168.992-169.331 168.992s-168.139-75.837-168.139-169.022c0-3.080 0.294-6.067 0.465-9.1h-1.285c-2.167-38.212-33.445-68.608-72.091-68.608-40.038 0-72.493 32.564-72.493 72.725 0 1.052 0.263 2.043 0.31 3.080-0.031 0.635-0.093 1.269-0.093 1.904 0 173.634 140.313 314.381 313.39 314.381s314.426-140.746 314.426-314.381c-0.031-124.573-72.989-231.92-178.045-282.792z" fill="#abdcf4"></path>
</svg>
